<?xml version="1.0"?>
<svg width="25" height="25" xmlns="http://www.w3.org/2000/svg" xmlns:svg="http://www.w3.org/2000/svg" class="ma">
 <g class="layer">
  <title>Layer 1</title>
  <path d="m18,2.5a0.5,0.5 0 0 1 1,0l0,2.5l2.5,0a0.5,0.5 0 0 1 0,1l-2.5,0l0,2.5a0.5,0.5 0 1 1 -1,0l0,-2.5l-2.5,0a0.5,0.5 0 0 1 0,-1l2.5,0l0,-2.5zm-11,4.5a1,1 0 0 1 1,-1l3.5,0a0.5,0.5 0 0 0 0,-1l-3.5,0a2,2 0 0 0 -2,2l0,14a0.5,0.5 0 0 0 0.8,0.4l5.7,-4.4l5.7,4.4a0.5,0.5 0 0 0 0.8,-0.4l0,-8.5a0.5,0.5 0 0 0 -1,0l0,7.48l-5.2,-4a0.5,0.5 0 0 0 -0.6,0l-5.2,4l0,-12.98z" fill="#292929" id="svg_1"/>
  <circle cx="18.48" cy="5.35" fill="#37ad3f" id="svg_6" r="3.7"/>
  <path d="m16.29,5.27l0.5,-0.5l1.37,1.37l2.28,-2.28l0.5,0.5l-2.78,2.78" fill="#ffffff" id="svg_8" transform="matrix(1 0 0 1 0 0)"/>
 </g>
</svg>